# xmcd CD database file
#
# Track frame offsets:
#	150
#	16510
#	34507
#	52582
#	66672
#	82815
#	99980
#	116000
#	129372
#	144797
#	160355
#	172705
#
# Disc length: 2512 seconds
#
# Revision: 1
# Processed by: cddbd v1.5.1PL0 Copyright (c) Steve Scherf et al.
# Submitted via: CDex 1.40Release
#
DISCID=8009ce0c
DTITLE=Michelle Poe - Just One Of The Boys
DYEAR=2004
DGENRE=Country
TTITLE0=You Either Do Or You Dont
TTITLE1=One In A Row
TTITLE2=Thats Not Me
TTITLE3=This Aint Love Anymore
TTITLE4=When Did You Know
TTITLE5=Gorgeous Lies
TTITLE6=Love Sure Looks Good On You
TTITLE7=Love City
TTITLE8=Teach Me Again
TTITLE9=Rock My Baby
TTITLE10=Just One Of The Boys
TTITLE11=Not As Simple As That
EXTD=YEAR: 2004 ID3G: 2
EXTT0=
EXTT1=
EXTT2=
EXTT3=
EXTT4=
EXTT5=
EXTT6=
EXTT7=
EXTT8=
EXTT9=
EXTT10=
EXTT11=
PLAYORDER=
